<?xml version="1.0" standalone="no"?><!-- Generator: Gravit.io --><svg xmlns="http://www.w3.org/2000/svg" xmlns:xlink="http://www.w3.org/1999/xlink" style="isolation:isolate" viewBox="0 0 471.66 132.3" width="471.66" height="132.3"><defs><clipPath id="_clipPath_NVS2hnfltzg53Cq2huwOScwXeSLkJwSW"><rect width="471.66" height="132.3"/></clipPath></defs><g clip-path="url(#_clipPath_NVS2hnfltzg53Cq2huwOScwXeSLkJwSW)"><path d=" M 34.16 132.3 L 34.16 132.3 Q 24.5 132.3 16.73 127.54 L 16.73 127.54 L 16.73 127.54 Q 8.96 122.78 4.48 113.75 L 4.48 113.75 L 4.48 113.75 Q 0 104.72 0 92.4 L 0 92.4 L 0 92.4 Q 0 71.12 9.1 52.99 L 9.1 52.99 L 9.1 52.99 Q 18.2 34.86 35.98 23.87 L 35.98 23.87 L 35.98 23.87 Q 53.76 12.88 78.68 12.88 L 78.68 12.88 L 78.68 12.88 Q 85.12 12.88 92.47 13.86 L 92.47 13.86 L 92.47 13.86 Q 99.82 14.84 105.84 16.8 L 105.84 16.8 L 105.84 16.8 Q 109.76 17.92 109.76 22.4 L 109.76 22.4 L 109.76 22.4 Q 109.76 26.04 107.03 29.26 L 107.03 29.26 L 107.03 29.26 Q 104.3 32.48 100.66 32.48 L 100.66 32.48 L 100.66 32.48 Q 99.54 32.48 98.98 32.34 L 98.98 32.34 L 98.98 32.34 Q 91.7 30.66 86.52 29.89 L 86.52 29.89 L 86.52 29.89 Q 81.34 29.12 75.6 29.12 L 75.6 29.12 L 75.6 29.12 Q 57.82 29.12 45.36 37.73 L 45.36 37.73 L 45.36 37.73 Q 32.9 46.34 26.74 60.48 L 26.74 60.48 L 26.74 60.48 Q 20.58 74.62 20.58 91 L 20.58 91 L 20.58 91 Q 20.58 102.9 25.27 109.41 L 25.27 109.41 L 25.27 109.41 Q 29.96 115.92 37.52 115.92 L 37.52 115.92 L 37.52 115.92 Q 46.06 115.92 52.5 108.92 L 52.5 108.92 L 52.5 108.92 Q 58.94 101.92 64.26 86.24 L 64.26 86.24 L 64.26 86.24 Q 69.58 70.56 74.76 43.68 L 74.76 43.68 L 74.76 43.68 Q 75.6 39.76 78.12 38.36 L 78.12 38.36 L 78.12 38.36 Q 80.64 36.96 84.84 36.96 L 84.84 36.96 L 84.84 36.96 Q 94.78 36.96 94.78 43.4 L 94.78 43.4 L 94.78 43.4 Q 94.78 44.52 94.36 46.2 L 94.36 46.2 L 94.36 46.2 Q 90.72 59.78 87.71 76.23 L 87.71 76.23 L 87.71 76.23 Q 84.7 92.68 84.7 101.22 L 84.7 101.22 L 84.7 101.22 Q 84.7 108.78 86.94 112.21 L 86.94 112.21 L 86.94 112.21 Q 89.18 115.64 93.8 115.64 L 93.8 115.64 L 93.8 115.64 Q 98.28 115.64 102.34 112.63 L 102.34 112.63 L 102.34 112.63 Q 106.4 109.62 112.56 102.34 L 112.56 102.34 L 112.56 102.34 Q 114.24 100.38 116.34 100.38 L 116.34 100.38 L 116.34 100.38 Q 118.16 100.38 119.21 102.06 L 119.21 102.06 L 119.21 102.06 Q 120.26 103.74 120.26 106.68 L 120.26 106.68 L 120.26 106.68 Q 120.26 112.14 117.6 115.36 L 117.6 115.36 L 117.6 115.36 Q 110.74 123.62 104.16 127.96 L 104.16 127.96 L 104.16 127.96 Q 97.58 132.3 88.06 132.3 L 88.06 132.3 L 88.06 132.3 Q 78.26 132.3 72.24 126.63 L 72.24 126.63 L 72.24 126.63 Q 66.22 120.96 64.68 110.6 L 64.68 110.6 L 64.68 110.6 Q 54.32 132.3 34.16 132.3 L 34.16 132.3 Z  M 161.98 100.38 L 161.98 100.38 Q 163.8 100.38 164.85 102.06 L 164.85 102.06 L 164.85 102.06 Q 165.9 103.74 165.9 106.68 L 165.9 106.68 L 165.9 106.68 Q 165.9 112.28 163.24 115.36 L 163.24 115.36 L 163.24 115.36 Q 157.22 122.78 150.15 127.54 L 150.15 127.54 L 150.15 127.54 Q 143.08 132.3 134.12 132.3 L 134.12 132.3 L 134.12 132.3 Q 121.8 132.3 115.85 121.1 L 115.85 121.1 L 115.85 121.1 Q 109.9 109.9 109.9 92.12 L 109.9 92.12 L 109.9 92.12 Q 109.9 75.04 114.31 53.2 L 114.31 53.2 L 114.31 53.2 Q 118.72 31.36 127.33 15.68 L 127.33 15.68 L 127.33 15.68 Q 135.94 0 147.84 0 L 147.84 0 L 147.84 0 Q 154.56 0 158.41 6.23 L 158.41 6.23 L 158.41 6.23 Q 162.26 12.46 162.26 24.08 L 162.26 24.08 L 162.26 24.08 Q 162.26 40.74 153.02 62.72 L 153.02 62.72 L 153.02 62.72 Q 143.78 84.7 127.96 106.26 L 127.96 106.26 L 127.96 106.26 Q 128.94 112 131.18 114.45 L 131.18 114.45 L 131.18 114.45 Q 133.42 116.9 137.06 116.9 L 137.06 116.9 L 137.06 116.9 Q 142.8 116.9 147.14 113.61 L 147.14 113.61 L 147.14 113.61 Q 151.48 110.32 158.2 102.34 L 158.2 102.34 L 158.2 102.34 Q 159.88 100.38 161.98 100.38 L 161.98 100.38 Z  M 144.76 13.86 L 144.76 13.86 Q 141.54 13.86 137.48 25.48 L 137.48 25.48 L 137.48 25.48 Q 133.42 37.1 130.34 54.32 L 130.34 54.32 L 130.34 54.32 Q 127.26 71.54 126.98 87.36 L 126.98 87.36 L 126.98 87.36 Q 136.92 70.98 142.8 54.53 L 142.8 54.53 L 142.8 54.53 Q 148.68 38.08 148.68 24.5 L 148.68 24.5 L 148.68 24.5 Q 148.68 13.86 144.76 13.86 L 144.76 13.86 Z  M 229.04 88.62 L 229.04 88.62 Q 230.86 88.62 231.84 90.44 L 231.84 90.44 L 231.84 90.44 Q 232.82 92.26 232.82 95.06 L 232.82 95.06 L 232.82 95.06 Q 232.82 98.56 231.84 100.45 L 231.84 100.45 L 231.84 100.45 Q 230.86 102.34 228.76 103.04 L 228.76 103.04 L 228.76 103.04 Q 220.36 105.98 210.28 106.4 L 210.28 106.4 L 210.28 106.4 Q 207.48 118.02 199.71 125.16 L 199.71 125.16 L 199.71 125.16 Q 191.94 132.3 182.56 132.3 L 182.56 132.3 L 182.56 132.3 Q 168.42 132.3 161.98 121.52 L 161.98 121.52 L 161.98 121.52 Q 155.54 110.74 155.54 90.3 L 155.54 90.3 L 155.54 90.3 Q 155.54 72.24 160.02 51.03 L 160.02 51.03 L 160.02 51.03 Q 164.5 29.82 173.11 14.91 L 173.11 14.91 L 173.11 14.91 Q 181.72 0 193.62 0 L 193.62 0 L 193.62 0 Q 200.06 0 203.98 5.53 L 203.98 5.53 L 203.98 5.53 Q 207.9 11.06 207.9 19.88 L 207.9 19.88 L 207.9 19.88 Q 207.9 31.36 203.56 42.7 L 203.56 42.7 L 203.56 42.7 Q 199.22 54.04 189.14 66.5 L 189.14 66.5 L 189.14 66.5 Q 198.52 67.2 204.4 74.27 L 204.4 74.27 L 204.4 74.27 Q 210.28 81.34 211.4 91.7 L 211.4 91.7 L 211.4 91.7 Q 217.98 91.28 227.08 88.9 L 227.08 88.9 L 227.08 88.9 Q 227.92 88.62 229.04 88.62 L 229.04 88.62 Z  M 190.4 13.86 L 190.4 13.86 Q 187.6 13.86 184.31 22.19 L 184.31 22.19 L 184.31 22.19 Q 181.02 30.52 178.22 44.8 L 178.22 44.8 L 178.22 44.8 Q 175.42 59.08 174.02 76.02 L 174.02 76.02 L 174.02 76.02 Q 183.26 59.08 188.79 46.13 L 188.79 46.13 L 188.79 46.13 Q 194.32 33.18 194.32 23.1 L 194.32 23.1 L 194.32 23.1 Q 194.32 18.62 193.27 16.24 L 193.27 16.24 L 193.27 16.24 Q 192.22 13.86 190.4 13.86 L 190.4 13.86 Z  M 183.12 117.46 L 183.12 117.46 Q 187.46 117.46 190.82 113.82 L 190.82 113.82 L 190.82 113.82 Q 194.18 110.18 195.3 103.32 L 195.3 103.32 L 195.3 103.32 Q 190.96 100.38 188.65 95.62 L 188.65 95.62 L 188.65 95.62 Q 186.34 90.86 186.34 85.54 L 186.34 85.54 L 186.34 85.54 Q 186.34 83.58 186.9 80.22 L 186.9 80.22 L 186.48 80.22 L 186.48 80.22 Q 180.74 80.22 176.89 85.89 L 176.89 85.89 L 176.89 85.89 Q 173.04 91.56 173.04 101.08 L 173.04 101.08 L 173.04 101.08 Q 173.04 109.06 176.05 113.26 L 176.05 113.26 L 176.05 113.26 Q 179.06 117.46 183.12 117.46 L 183.12 117.46 Z  M 283.22 100.38 L 283.22 100.38 Q 285.04 100.38 286.09 102.06 L 286.09 102.06 L 286.09 102.06 Q 287.14 103.74 287.14 106.68 L 287.14 106.68 L 287.14 106.68 Q 287.14 112.28 284.48 115.36 L 284.48 115.36 L 284.48 115.36 Q 279.3 121.66 269.85 126.98 L 269.85 126.98 L 269.85 126.98 Q 260.4 132.3 249.62 132.3 L 249.62 132.3 L 249.62 132.3 Q 234.92 132.3 226.8 124.32 L 226.8 124.32 L 226.8 124.32 Q 218.68 116.34 218.68 102.48 L 218.68 102.48 L 218.68 102.48 Q 218.68 92.82 222.74 84.49 L 222.74 84.49 L 222.74 84.49 Q 226.8 76.16 234.01 71.26 L 234.01 71.26 L 234.01 71.26 Q 241.22 66.36 250.32 66.36 L 250.32 66.36 L 250.32 66.36 Q 258.44 66.36 263.34 71.19 L 263.34 71.19 L 263.34 71.19 Q 268.24 76.02 268.24 84.28 L 268.24 84.28 L 268.24 84.28 Q 268.24 93.94 261.31 100.87 L 261.31 100.87 L 261.31 100.87 Q 254.38 107.8 237.86 111.86 L 237.86 111.86 L 237.86 111.86 Q 241.36 118.3 251.16 118.3 L 251.16 118.3 L 251.16 118.3 Q 257.46 118.3 265.51 113.89 L 265.51 113.89 L 265.51 113.89 Q 273.56 109.48 279.44 102.34 L 279.44 102.34 L 279.44 102.34 Q 281.12 100.38 283.22 100.38 L 283.22 100.38 Z  M 247.94 80.08 L 247.94 80.08 Q 242.76 80.08 239.19 86.1 L 239.19 86.1 L 239.19 86.1 Q 235.62 92.12 235.62 100.66 L 235.62 100.66 L 235.62 100.94 L 235.62 100.94 Q 243.88 98.98 248.64 95.06 L 248.64 95.06 L 248.64 95.06 Q 253.4 91.14 253.4 85.96 L 253.4 85.96 L 253.4 85.96 Q 253.4 83.3 251.93 81.69 L 251.93 81.69 L 251.93 81.69 Q 250.46 80.08 247.94 80.08 L 247.94 80.08 Z  M 285.74 132.3 L 285.74 132.3 Q 280.42 132.3 278.25 126.7 L 278.25 126.7 L 278.25 126.7 Q 276.08 121.1 276.08 108.78 L 276.08 108.78 L 276.08 108.78 Q 276.08 90.58 281.26 74.2 L 281.26 74.2 L 281.26 74.2 Q 282.52 70.14 285.39 68.25 L 285.39 68.25 L 285.39 68.25 Q 288.26 66.36 293.44 66.36 L 293.44 66.36 L 293.44 66.36 Q 296.24 66.36 297.36 67.06 L 297.36 67.06 L 297.36 67.06 Q 298.48 67.76 298.48 69.72 L 298.48 69.72 L 298.48 69.72 Q 298.48 71.96 296.38 79.8 L 296.38 79.8 L 296.38 79.8 Q 294.98 85.4 294.14 89.6 L 294.14 89.6 L 294.14 89.6 Q 293.3 93.8 292.74 99.96 L 292.74 99.96 L 292.74 99.96 Q 297.36 87.92 303.1 80.36 L 303.1 80.36 L 303.1 80.36 Q 308.84 72.8 314.37 69.58 L 314.37 69.58 L 314.37 69.58 Q 319.9 66.36 324.52 66.36 L 324.52 66.36 L 324.52 66.36 Q 333.62 66.36 333.62 75.46 L 333.62 75.46 L 333.62 75.46 Q 333.62 77.28 332.36 84.28 L 332.36 84.28 L 332.36 84.28 Q 331.24 89.88 331.24 91.28 L 331.24 91.28 L 331.24 91.28 Q 331.24 96.18 334.74 96.18 L 334.74 96.18 L 334.74 96.18 Q 338.66 96.18 344.82 90.02 L 344.82 90.02 L 344.82 90.02 Q 346.64 88.2 348.6 88.2 L 348.6 88.2 L 348.6 88.2 Q 350.42 88.2 351.47 89.81 L 351.47 89.81 L 351.47 89.81 Q 352.52 91.42 352.52 94.08 L 352.52 94.08 L 352.52 94.08 Q 352.52 99.26 349.72 102.2 L 349.72 102.2 L 349.72 102.2 Q 345.8 106.26 340.55 109.13 L 340.55 109.13 L 340.55 109.13 Q 335.3 112 329.42 112 L 329.42 112 L 329.42 112 Q 322 112 318.15 108.22 L 318.15 108.22 L 318.15 108.22 Q 314.3 104.44 314.3 98 L 314.3 98 L 314.3 98 Q 314.3 95.9 314.72 93.8 L 314.72 93.8 L 314.72 93.8 Q 315 91 315 90.02 L 315 90.02 L 315 90.02 Q 315 87.78 313.46 87.78 L 313.46 87.78 L 313.46 87.78 Q 311.36 87.78 307.93 92.47 L 307.93 92.47 L 307.93 92.47 Q 304.5 97.16 301.14 104.86 L 301.14 104.86 L 301.14 104.86 Q 297.78 112.56 295.68 121.1 L 295.68 121.1 L 295.68 121.1 Q 294.14 127.68 292.11 129.99 L 292.11 129.99 L 292.11 129.99 Q 290.08 132.3 285.74 132.3 L 285.74 132.3 Z  M 401.94 100.38 L 401.94 100.38 Q 403.76 100.38 404.81 102.06 L 404.81 102.06 L 404.81 102.06 Q 405.86 103.74 405.86 106.68 L 405.86 106.68 L 405.86 106.68 Q 405.86 112.28 403.2 115.36 L 403.2 115.36 L 403.2 115.36 Q 397.18 122.78 390.04 127.54 L 390.04 127.54 L 390.04 127.54 Q 382.9 132.3 373.66 132.3 L 373.66 132.3 L 373.66 132.3 Q 345.1 132.3 345.1 92.12 L 345.1 92.12 L 345.1 92.12 Q 345.1 85.96 345.52 79.66 L 345.52 79.66 L 340.06 79.66 L 340.06 79.66 Q 335.86 79.66 334.39 78.12 L 334.39 78.12 L 334.39 78.12 Q 332.92 76.58 332.92 73.22 L 332.92 73.22 L 332.92 73.22 Q 332.92 65.38 339.22 65.38 L 339.22 65.38 L 347.2 65.38 L 347.2 65.38 Q 349.58 49.98 354.48 37.24 L 354.48 37.24 L 354.48 37.24 Q 359.38 24.5 366.31 16.94 L 366.31 16.94 L 366.31 16.94 Q 373.24 9.38 381.22 9.38 L 381.22 9.38 L 381.22 9.38 Q 387.1 9.38 390.46 14.56 L 390.46 14.56 L 390.46 14.56 Q 393.82 19.74 393.82 27.58 L 393.82 27.58 L 393.82 27.58 Q 393.82 49.28 375.62 65.38 L 375.62 65.38 L 391.3 65.38 L 391.3 65.38 Q 393.54 65.38 394.52 66.36 L 394.52 66.36 L 394.52 66.36 Q 395.5 67.34 395.5 70 L 395.5 70 L 395.5 70 Q 395.5 79.66 379.68 79.66 L 379.68 79.66 L 362.6 79.66 L 362.6 79.66 Q 362.32 86.66 362.32 90.58 L 362.32 90.58 L 362.32 90.58 Q 362.32 105.14 365.75 111.02 L 365.75 111.02 L 365.75 111.02 Q 369.18 116.9 376.6 116.9 L 376.6 116.9 L 376.6 116.9 Q 382.62 116.9 387.24 113.26 L 387.24 113.26 L 387.24 113.26 Q 391.86 109.62 398.16 102.34 L 398.16 102.34 L 398.16 102.34 Q 399.84 100.38 401.94 100.38 L 401.94 100.38 Z  M 377.44 22.82 L 377.44 22.82 Q 375.34 22.82 372.75 28.07 L 372.75 28.07 L 372.75 28.07 Q 370.16 33.32 367.85 42.63 L 367.85 42.63 L 367.85 42.63 Q 365.54 51.94 364 63.28 L 364 63.28 L 364 63.28 Q 372.26 56.14 376.39 47.25 L 376.39 47.25 L 376.39 47.25 Q 380.52 38.36 380.52 31.08 L 380.52 31.08 L 380.52 31.08 Q 380.52 22.82 377.44 22.82 L 377.44 22.82 Z  M 411.74 132.3 L 411.74 132.3 Q 403.06 132.3 397.88 126 L 397.88 126 L 397.88 126 Q 392.7 119.7 392.7 109.48 L 392.7 109.48 L 392.7 109.48 Q 392.7 98.28 397.88 88.27 L 397.88 88.27 L 397.88 88.27 Q 403.06 78.26 411.67 72.17 L 411.67 72.17 L 411.67 72.17 Q 420.28 66.08 429.94 66.08 L 429.94 66.08 L 429.94 66.08 Q 433.02 66.08 434.07 67.27 L 434.07 67.27 L 434.07 67.27 Q 435.12 68.46 435.82 71.54 L 435.82 71.54 L 435.82 71.54 Q 438.76 70.98 441.98 70.98 L 441.98 70.98 L 441.98 70.98 Q 448.84 70.98 448.84 75.88 L 448.84 75.88 L 448.84 75.88 Q 448.84 78.82 446.74 89.88 L 446.74 89.88 L 446.74 89.88 Q 443.52 105.98 443.52 112.28 L 443.52 112.28 L 443.52 112.28 Q 443.52 114.38 444.57 115.64 L 444.57 115.64 L 444.57 115.64 Q 445.62 116.9 447.3 116.9 L 447.3 116.9 L 447.3 116.9 Q 449.96 116.9 453.74 113.47 L 453.74 113.47 L 453.74 113.47 Q 457.52 110.04 463.96 102.34 L 463.96 102.34 L 463.96 102.34 Q 465.64 100.38 467.74 100.38 L 467.74 100.38 L 467.74 100.38 Q 469.56 100.38 470.61 102.06 L 470.61 102.06 L 470.61 102.06 Q 471.66 103.74 471.66 106.68 L 471.66 106.68 L 471.66 106.68 Q 471.66 112.28 469 115.36 L 469 115.36 L 469 115.36 Q 463.26 122.5 456.82 127.4 L 456.82 127.4 L 456.82 127.4 Q 450.38 132.3 444.36 132.3 L 444.36 132.3 L 444.36 132.3 Q 439.74 132.3 435.89 129.15 L 435.89 129.15 L 435.89 129.15 Q 432.04 126 430.08 120.54 L 430.08 120.54 L 430.08 120.54 Q 422.8 132.3 411.74 132.3 L 411.74 132.3 Z  M 416.78 118.16 L 416.78 118.16 Q 419.86 118.16 422.66 114.52 L 422.66 114.52 L 422.66 114.52 Q 425.46 110.88 426.72 104.86 L 426.72 104.86 L 431.9 79.1 L 431.9 79.1 Q 426.02 79.24 421.05 83.51 L 421.05 83.51 L 421.05 83.51 Q 416.08 87.78 413.14 94.78 L 413.14 94.78 L 413.14 94.78 Q 410.2 101.78 410.2 109.62 L 410.2 109.62 L 410.2 109.62 Q 410.2 113.96 411.95 116.06 L 411.95 116.06 L 411.95 116.06 Q 413.7 118.16 416.78 118.16 L 416.78 118.16 Z " fill-rule="evenodd" fill="rgb(25,118,210)"/></g></svg>